# xmcd CD database file
# Copyright (C) 1993-1998 Ti Kan
# 
# Track frame offsets:
#     180
#     17090
#     35280
#     50637
#     62318
#     74783
#     98742
#     108969
#     123805
#     145277
#     154379
#     172108
#     187047
# 
# Disc length: 2778 seconds
# 
# Revision: 0
# Processed by: cddbd v1.4b41PL1 Copyright (c) Steve Scherf et al.
# Submitted via: DiscPlay 4.0.0
# 
DISCID=b70ad80d
DTITLE=Lost Mavericks - Louisiana Moon
DYEAR=1900
DGENRE=
TTITLE0=Lovers Ain't Liars
TTITLE1=Louisiana Moon
TTITLE2=Eighteen Wheels
TTITLE3=Half A Heart
TTITLE4=Dim Lights
TTITLE5=Home
TTITLE6=Drunk And Fat
TTITLE7=What Kind Of Fool
TTITLE8=Thirteen Years
TTITLE9=Cry, Cry, Cry
TTITLE10=I Ain't Ever Satisfied
TTITLE11=I Couldn't Leave You
TTITLE12=Bluest Eyes Of Texas
EXTD=
EXTT0=
EXTT1=
EXTT2=
EXTT3=
EXTT4=
EXTT5=
EXTT6=
EXTT7=
EXTT8=
EXTT9=
EXTT10=
EXTT11=
EXTT12=
PLAYORDER=
